<?xml version="1.0" standalone="no"?>
<!DOCTYPE svg PUBLIC "-//W3C//DTD SVG 20010904//EN"
 "http://www.w3.org/TR/2001/REC-SVG-20010904/DTD/svg10.dtd">
<svg version="1.0" xmlns="http://www.w3.org/2000/svg"
 width="16.000000pt" height="16.000000pt" viewBox="0 0 16.000000 16.000000"
 preserveAspectRatio="xMidYMid meet">
<metadata>
Created by potrace 1.11, written by Peter Selinger 2001-2013
</metadata>
<g transform="translate(0.000000,16.000000) scale(0.003200,-0.003200)"
fill="#000000" stroke="none">
<path d="M2240 4009 c-85 -4 -222 -12 -305 -18 -82 -6 -266 -11 -408 -11
l-258 0 3 -67 3 -68 85 -32 c47 -17 129 -42 183 -54 l97 -23 0 -1333 0 -1333
-27 -6 c-142 -34 -256 -65 -295 -83 l-48 -20 0 -66 0 -65 590 0 590 0 0 66 0
65 -36 15 c-32 14 -243 72 -316 88 l-28 6 0 575 0 575 213 0 213 0 63 -137
c176 -382 356 -688 590 -1001 75 -101 106 -134 179 -187 l87 -65 273 0 272 0
0 58 0 57 -120 64 -120 64 -103 136 c-295 387 -750 1054 -730 1071 4 4 35 18
68 31 197 77 377 232 463 397 68 130 94 247 94 422 0 221 -35 355 -132 503
-143 220 -401 347 -765 378 -121 10 -148 9 -375 -2z m290 -239 c235 -38 423
-170 490 -347 46 -120 61 -281 40 -428 -33 -229 -162 -419 -345 -510 -110 -54
-188 -67 -430 -68 l-210 -2 -3 672 -2 672 47 6 c27 4 53 8 58 10 24 8 296 4
355 -5z"/>
</g>
</svg>
